PathFileType	4	(X/Y/Z)	C:/Users/opensim2020/Desktop/walking_exp_matlab/subject06_walking14_straight_02.trc	
DataRate	CameraRate	NumFrames	NumMarkers	Units	OrigDataRate	OrigDataStartFrame	OrigNumFrames	
100.00	100.00	5	45	mm	100.00	1676	192	
Frame#	Time	LFHD			RFHD			LBHD			RBHD			C7			T10			CLAV			STRN			RBAK			LSHO			LUPA			LELB			LFRM			LWRA			LWRB			LFIN			RSHO			RUPA			RELB			RFRM			RWRA			RWRB			RFIN			LASI			RASI			LPSI			RPSI			LTHI			LKNE			LTIB			LANK			LHEE			LTOE			RTHI			RKNE			RTIB			RANK			RHEE			RTOE			*39			*40			*41			*42			*43			*44			
		X1	Y1	Z1	X2	Y2	Z2	X3	Y3	Z3	X4	Y4	Z4	X5	Y5	Z5	X6	Y6	Z6	X7	Y7	Z7	X8	Y8	Z8	X9	Y9	Z9	X10	Y10	Z10	X11	Y11	Z11	X12	Y12	Z12	X13	Y13	Z13	X14	Y14	Z14	X15	Y15	Z15	X16	Y16	Z16	X17	Y17	Z17	X18	Y18	Z18	X19	Y19	Z19	X20	Y20	Z20	X21	Y21	Z21	X22	Y22	Z22	X23	Y23	Z23	X24	Y24	Z24	X25	Y25	Z25	X26	Y26	Z26	X27	Y27	Z27	X28	Y28	Z28	X29	Y29	Z29	X30	Y30	Z30	X31	Y31	Z31	X32	Y32	Z32	X33	Y33	Z33	X34	Y34	Z34	X35	Y35	Z35	X36	Y36	Z36	X37	Y37	Z37	X38	Y38	Z38	X39	Y39	Z39	X40	Y40	Z40	X41	Y41	Z41	X42	Y42	Z42	X43	Y43	Z43	X44	Y44	Z44	X45	Y45	Z45	

97	0.960	-947.84467	-17.60445	1647.74866	-1079.93213	-23.50507	1636.98364	-952.78821	111.35131	1583.93994	-1081.88843	103.88675	1578.61816	-1002.96375	99.38837	1428.31396	-1006.91919	124.55935	1098.65051	-1006.89478	-14.19002	1355.34070	-997.06970	-57.38825	1179.96021	-1073.74426	170.12505	1254.39539	-843.10254	36.33151	1386.69861	-772.45483	-5.35926	1187.82751	-760.34082	-37.11293	1079.34375	-746.69751	-150.07317	982.53784	-796.49658	-270.90417	952.13959	-761.40985	-236.81442	901.75885	-762.59009	-324.19656	882.17560	-1168.35022	37.96431	1381.10034	-1246.08875	108.28027	1188.65625	-1259.06726	118.87888	1066.89832	-1278.54004	134.64102	947.86713	-1257.62585	109.90313	796.26215	-1290.85291	167.51396	813.80579	-1296.90344	155.56181	730.01575	-897.69934	-49.57426	934.66400	-1118.61255	-64.26623	953.35913	-933.98376	106.30956	965.13135	-1103.14319	91.55396	975.40503	-858.15710	65.76481	625.49817	-883.36664	103.90533	465.07056	-887.55774	264.72260	260.53638	-928.29889	359.33838	115.10881	-971.50934	404.32495	121.00384	-936.91766	240.84116	33.98574	-1184.02979	-75.95877	630.79120	-1151.73938	-116.74232	514.69647	-1153.24365	-131.51598	248.07726	-1105.56213	-157.80962	64.76411	-1058.32837	-124.79255	40.20285	-1103.41455	-314.96027	39.11571	-1011.44568	82.45607	1679.13696															 
98	0.970	-948.93787	-28.15010	1649.81921	-1080.97913	-34.13977	1639.05920	-953.98480	100.88232	1586.01624	-1083.02942	93.13786	1580.68420	-1004.12170	88.73857	1430.08997	-1007.59088	113.38515	1100.62659	-1007.78107	-25.08085	1357.49023	-997.92371	-68.53157	1182.15649	-1074.80225	158.96867	1256.43066	-844.17151	25.39837	1388.88416	-774.13837	-14.92715	1189.37329	-762.31293	-46.09246	1080.76563	-748.41962	-157.19792	981.74872	-797.63666	-277.57706	949.08966	-763.63013	-241.75853	898.71008	-763.65387	-329.06323	877.98450	-1169.22632	26.95610	1383.24817	-1247.22778	95.61852	1190.23438	-1259.79895	105.49908	1068.51135	-1279.54321	120.35773	949.41895	-1258.64844	94.63937	798.12280	-1292.05371	152.40872	815.15985	-1297.75916	140.05028	731.35126	-898.88483	-61.06064	936.55701	-1119.31042	-75.70059	956.60883	-934.63184	94.73317	967.22186	-1103.29956	79.58592	977.78186	-859.28815	52.46855	626.30603	-884.05707	88.29663	465.51236	-888.36975	255.48943	266.07437	-928.37750	353.54257	123.07423	-971.94958	397.44958	130.72475	-936.81866	240.56770	33.79259	-1184.86804	-86.24194	632.94275	-1152.15039	-126.10322	516.07788	-1153.43396	-136.16682	248.98032	-1105.96643	-159.13857	65.17860	-1059.12134	-124.96423	40.48780	-1101.45667	-316.01843	37.96407	-1012.61517	71.97839	1681.29028															 
99	0.980	-949.97894	-38.72288	1652.14990	-1081.93555	-44.83876	1641.21460	-955.06464	90.31944	1588.38269	-1084.17981	82.43185	1582.97205	-1005.00146	78.06680	1432.25769	-1008.60333	102.19615	1102.98767	-1008.63983	-35.97485	1359.78064	-998.75085	-79.72343	1184.58911	-1075.74866	147.54283	1258.50208	-845.19000	14.60748	1391.21265	-775.67395	-24.50785	1191.40063	-764.35382	-54.68776	1082.53674	-750.39050	-163.64011	981.13623	-798.74139	-283.60315	945.69263	-765.17322	-246.45822	896.00867	-764.54877	-333.31131	873.41534	-1170.09290	16.03172	1385.77637	-1248.34119	82.97551	1192.24365	-1260.74561	92.22182	1070.54932	-1280.53040	105.78818	951.26440	-1259.50964	78.85442	800.17444	-1293.19092	136.72876	816.79932	-1298.57324	123.74492	732.95056	-900.36566	-72.45251	938.74835	-1120.39941	-86.69373	959.68866	-935.54120	83.28094	969.43689	-1103.93909	68.23897	980.39893	-860.39038	38.71183	627.24359	-884.34393	71.94267	465.95584	-888.81989	245.04616	271.96902	-928.76654	346.54443	131.44565	-972.70026	389.29065	141.14067	-937.42792	239.66956	33.99390	-1185.25061	-96.61836	634.64355	-1152.63708	-134.62288	517.18555	-1153.72339	-140.76305	249.87521	-1105.55115	-159.89058	65.35264	-1059.40942	-124.92472	40.58778	-1099.93835	-316.58853	36.97356	-1013.80383	61.31985	1683.59277															 
100	0.990	-951.35144	-49.43711	1654.68530	-1082.87695	-55.48708	1643.40125	-956.00854	79.75617	1590.93945	-1085.20569	71.86106	1585.39807	-1005.93146	67.36168	1434.38428	-1009.85138	91.36542	1105.58032	-1009.39526	-46.75902	1362.15479	-999.56500	-90.78341	1187.10620	-1076.60999	136.51283	1261.17712	-846.24164	4.08628	1393.72412	-777.15411	-34.18922	1193.72644	-766.42548	-63.13474	1084.54346	-751.78003	-169.75856	980.35486	-799.77997	-288.99939	941.98169	-766.61493	-250.27893	893.16461	-765.40387	-336.66614	868.43030	-1170.75183	4.96185	1388.46582	-1249.78186	70.51749	1194.60876	-1261.62842	78.61010	1072.78040	-1281.48779	91.07052	953.39868	-1260.45923	63.64083	802.08752	-1294.27856	120.55816	818.63617	-1299.28333	106.75562	734.73572	-902.19995	-83.87830	941.20856	-1121.65759	-97.66125	962.50409	-936.89410	72.03915	971.72028	-1105.02881	56.95913	982.85620	-861.25323	24.79474	628.29767	-884.10516	55.01744	466.44867	-889.43469	233.09894	277.63989	-929.30988	338.22501	140.06009	-973.91272	379.39822	151.69295	-938.06433	238.94060	34.17167	-1185.71069	-106.25526	636.07568	-1152.98438	-141.90349	517.82843	-1153.67334	-144.69176	250.38615	-1105.30505	-160.19514	65.57288	-1059.46545	-124.85339	40.66873	-1098.92883	-316.90903	36.25087	-1014.87280	50.52526	1685.93152															 
101	1.000	-952.28314	-60.12194	1656.86365	-1083.81372	-66.17098	1645.47888	-956.91797	69.26263	1593.44263	-1086.01563	61.33340	1587.76733	-1006.80322	56.67894	1436.60828	-1011.16718	80.42265	1108.08997	-1010.02271	-57.49215	1364.52527	-1000.38043	-101.90161	1189.58154	-1077.64795	125.30474	1263.75598	-847.29944	-6.25042	1396.20886	-778.42700	-43.96978	1196.34290	-768.51447	-71.23093	1086.57495	-753.39581	-175.26091	979.60522	-800.63373	-293.85660	938.01733	-767.72687	-253.64528	890.20093	-766.16974	-339.34375	863.15094	-1171.38379	-5.99385	1391.26392	-1250.59863	57.79561	1196.96411	-1262.65637	65.29354	1075.20105	-1282.48645	76.23620	955.67273	-1261.35767	46.92217	804.88397	-1295.26099	103.89359	820.51898	-1300.19177	89.34065	736.80188	-903.79578	-94.57114	943.63696	-1122.97144	-108.28121	965.00189	-938.58911	61.06066	974.01959	-1106.46411	45.71484	985.19177	-861.74615	10.61857	629.44165	-883.43353	37.56349	467.01730	-890.29846	219.74426	283.14297	-929.81543	328.32941	148.62766	-975.32031	367.74408	162.08876	-938.57098	237.63626	34.62308	-1186.09106	-114.72794	637.03882	-1153.58203	-148.59103	518.31537	-1153.66345	-148.00407	250.49792	-1105.08252	-160.70613	65.83796	-1059.40051	-124.95895	40.76550	-1097.92712	-317.38403	35.62656	-1015.84149	39.77195	1688.32678															 
